<mxfile host="65bd71144e">
    <diagram id="7sZPs7zZelK3rAfld-2p" name="Страница 1">
        <mxGraphModel dx="2337" dy="1163" grid="1" gridSize="10" guides="1" tooltips="1" connect="1" arrows="1" fold="1" page="1" pageScale="1" pageWidth="827" pageHeight="1169" math="0" shadow="0">
            <root>
                <mxCell id="0"/>
                <mxCell id="1" parent="0"/>
                <mxCell id="77" style="edgeStyle=none;html=1;fontFamily=Times New Roman;fontSize=20;" edge="1" parent="1" source="63">
                    <mxGeometry relative="1" as="geometry">
                        <mxPoint x="-40" y="480" as="targetPoint"/>
                        <Array as="points">
                            <mxPoint x="160" y="480"/>
                            <mxPoint x="50" y="480"/>
                        </Array>
                    </mxGeometry>
                </mxCell>
                <mxCell id="78" value="Text" style="edgeLabel;html=1;align=center;verticalAlign=middle;resizable=0;points=[];fontSize=20;fontFamily=Times New Roman;" vertex="1" connectable="0" parent="77">
                    <mxGeometry x="0.4355" y="4" relative="1" as="geometry">
                        <mxPoint as="offset"/>
                    </mxGeometry>
                </mxCell>
                <mxCell id="63" value="1. Фильтрация трасс" style="rounded=1;whiteSpace=wrap;html=1;fontFamily=Times New Roman;fontSize=20;" vertex="1" parent="1">
                    <mxGeometry x="80" y="240" width="160" height="80" as="geometry"/>
                </mxCell>
                <mxCell id="66" value="Пользователь" style="rounded=1;whiteSpace=wrap;html=1;fontFamily=Times New Roman;fontSize=20;" vertex="1" parent="1">
                    <mxGeometry x="360" width="240" height="115" as="geometry"/>
                </mxCell>
                <mxCell id="67" value="База&lt;br&gt;данных" style="rounded=1;whiteSpace=wrap;html=1;fontFamily=Times New Roman;fontSize=20;" vertex="1" parent="1">
                    <mxGeometry x="-400" y="440" width="360" height="400" as="geometry"/>
                </mxCell>
                <mxCell id="69" value="" style="endArrow=none;html=1;fontFamily=Times New Roman;fontSize=20;entryX=1;entryY=0.25;entryDx=0;entryDy=0;exitX=0;exitY=0.25;exitDx=0;exitDy=0;" edge="1" parent="1" source="63" target="63">
                    <mxGeometry width="50" height="50" relative="1" as="geometry">
                        <mxPoint x="130" y="290" as="sourcePoint"/>
                        <mxPoint x="180" y="240" as="targetPoint"/>
                    </mxGeometry>
                </mxCell>
                <mxCell id="70" value="" style="endArrow=none;html=1;fontFamily=Times New Roman;fontSize=20;exitX=0.25;exitY=1;exitDx=0;exitDy=0;entryX=0.25;entryY=0;entryDx=0;entryDy=0;" edge="1" parent="1" source="67" target="67">
                    <mxGeometry width="50" height="50" relative="1" as="geometry">
                        <mxPoint x="-130" y="210" as="sourcePoint"/>
                        <mxPoint x="-80" y="160" as="targetPoint"/>
                    </mxGeometry>
                </mxCell>
                <mxCell id="72" value="&lt;span style=&quot;white-space: pre;&quot;&gt;&#9;&lt;/span&gt;Локальное хранилище&lt;br&gt;&lt;span style=&quot;white-space: pre;&quot;&gt;&#9;&lt;/span&gt;текущих id трасс&lt;br&gt;&lt;span style=&quot;white-space: pre;&quot;&gt;&#9;&lt;/span&gt;&amp;nbsp;в выборке" style="rounded=1;whiteSpace=wrap;html=1;fontFamily=Times New Roman;fontSize=20;" vertex="1" parent="1">
                    <mxGeometry x="-400" y="230" width="360" height="170" as="geometry"/>
                </mxCell>
                <mxCell id="73" value="" style="endArrow=none;html=1;fontFamily=Times New Roman;fontSize=20;exitX=0.25;exitY=1;exitDx=0;exitDy=0;entryX=0.25;entryY=0;entryDx=0;entryDy=0;" edge="1" parent="1" source="72" target="72">
                    <mxGeometry width="50" height="50" relative="1" as="geometry">
                        <mxPoint x="-30" y="850" as="sourcePoint"/>
                        <mxPoint x="20" y="800" as="targetPoint"/>
                    </mxGeometry>
                </mxCell>
                <mxCell id="75" value="&lt;span style=&quot;white-space: pre;&quot;&gt;&#9;&lt;/span&gt;Локальное хранилище&lt;br&gt;&lt;span style=&quot;white-space: pre;&quot;&gt;&#9;&lt;/span&gt;данных текущей&lt;br&gt;&lt;span style=&quot;white-space: pre;&quot;&gt;&#9;&lt;/span&gt;&amp;nbsp;трассы" style="rounded=1;whiteSpace=wrap;html=1;fontFamily=Times New Roman;fontSize=20;" vertex="1" parent="1">
                    <mxGeometry x="-400" y="880" width="360" height="170" as="geometry"/>
                </mxCell>
                <mxCell id="76" value="" style="endArrow=none;html=1;fontFamily=Times New Roman;fontSize=20;exitX=0.25;exitY=1;exitDx=0;exitDy=0;entryX=0.25;entryY=0;entryDx=0;entryDy=0;" edge="1" parent="1" source="75" target="75">
                    <mxGeometry width="50" height="50" relative="1" as="geometry">
                        <mxPoint x="370" y="830" as="sourcePoint"/>
                        <mxPoint x="420" y="780" as="targetPoint"/>
                    </mxGeometry>
                </mxCell>
            </root>
        </mxGraphModel>
    </diagram>
</mxfile>